<svg width="52" height="73" viewBox="0 0 52 73" fill="none" xmlns="http://www.w3.org/2000/svg">
<g filter="url(#filter0_d_246_72)">
<path d="M47.0801 42.6776L28.1188 63.9737C27.5121 64.6579 26.7536 65 25.9951 65C25.2367 65 24.4782 64.6579 23.8715 63.9737L4.91014 42.6776C3.69662 41.3092 3.69662 39.1711 4.91014 37.8026C6.12367 36.4342 8.0198 36.4342 9.23333 37.8026L22.9613 53.3684V3.42105C22.9613 1.53947 24.3265 0 25.9951 0C27.6637 0 29.029 1.53947 29.029 3.42105V53.3684L42.8328 37.8882C44.0463 36.5197 45.9425 36.5197 47.156 37.8882C48.2937 39.1711 48.2937 41.3092 47.0801 42.6776Z" fill="#FF3300"/>
</g>
<defs>
<filter id="filter0_d_246_72" x="0" y="0" width="52" height="73" filterUnits="userSpaceOnUse" color-interpolation-filters="sRGB">
<feFlood flood-opacity="0" result="BackgroundImageFix"/>
<feColorMatrix in="SourceAlpha" type="matrix" values="0 0 0 0 0 0 0 0 0 0 0 0 0 0 0 0 0 0 127 0" result="hardAlpha"/>
<feOffset dy="4"/>
<feGaussianBlur stdDeviation="2"/>
<feComposite in2="hardAlpha" operator="out"/>
<feColorMatrix type="matrix" values="0 0 0 0 0 0 0 0 0 0 0 0 0 0 0 0 0 0 0.25 0"/>
<feBlend mode="normal" in2="BackgroundImageFix" result="effect1_dropShadow_246_72"/>
<feBlend mode="normal" in="SourceGraphic" in2="effect1_dropShadow_246_72" result="shape"/>
</filter>
</defs>
</svg>
