<svg width="25" height="24" viewBox="0 0 25 24" fill="none" xmlns="http://www.w3.org/2000/svg">
<path d="M8.10059 19.3503C8.10059 19.4461 7.98828 19.5228 7.84668 19.5228C7.68555 19.5371 7.57324 19.4605 7.57324 19.3503C7.57324 19.2546 7.68555 19.1779 7.82715 19.1779C7.97363 19.1635 8.10059 19.2402 8.10059 19.3503ZM6.58203 19.1348C6.54785 19.2306 6.64551 19.3408 6.79199 19.3695C6.91895 19.4174 7.06543 19.3695 7.09473 19.2737C7.12402 19.1779 7.03125 19.0678 6.88477 19.0246C6.75781 18.9911 6.61621 19.039 6.58203 19.1348ZM8.74023 19.0534C8.59863 19.0869 8.50098 19.1779 8.51562 19.2881C8.53027 19.3839 8.65723 19.4461 8.80371 19.4126C8.94531 19.3791 9.04297 19.2881 9.02832 19.1923C9.01367 19.1013 8.88184 19.039 8.74023 19.0534ZM11.9531 0.698975C5.18066 0.698975 0 5.74261 0 12.386C0 17.6979 3.4082 22.2434 8.27637 23.8432C8.90137 23.9533 9.12109 23.5749 9.12109 23.2636C9.12109 22.9666 9.10645 21.3285 9.10645 20.3227C9.10645 20.3227 5.68848 21.0411 4.9707 18.8953C4.9707 18.8953 4.41406 17.5015 3.61328 17.1423C3.61328 17.1423 2.49512 16.3903 3.69141 16.4046C3.69141 16.4046 4.90723 16.5004 5.57617 17.6404C6.64551 19.4893 8.4375 18.9576 9.13574 18.6415C9.24805 17.8751 9.56543 17.3434 9.91699 17.0273C7.1875 16.7303 4.43359 16.3424 4.43359 11.7346C4.43359 10.4174 4.80469 9.75643 5.58594 8.91343C5.45898 8.6021 5.04395 7.31844 5.71289 5.66118C6.7334 5.34984 9.08203 6.95442 9.08203 6.95442C10.0586 6.68619 11.1084 6.54729 12.1484 6.54729C13.1885 6.54729 14.2383 6.68619 15.2148 6.95442C15.2148 6.95442 17.5635 5.34505 18.584 5.66118C19.2529 7.32323 18.8379 8.6021 18.7109 8.91343C19.4922 9.76122 19.9707 10.4222 19.9707 11.7346C19.9707 16.3567 17.0947 16.7256 14.3652 17.0273C14.8145 17.4057 15.1953 18.1242 15.1953 19.2498C15.1953 20.8639 15.1807 22.8613 15.1807 23.254C15.1807 23.5653 15.4053 23.9437 16.0254 23.8336C20.9082 22.2434 24.2188 17.6979 24.2188 12.386C24.2188 5.74261 18.7256 0.698975 11.9531 0.698975ZM4.74609 17.2189C4.68262 17.2668 4.69727 17.377 4.78027 17.468C4.8584 17.5446 4.9707 17.5781 5.03418 17.5159C5.09766 17.468 5.08301 17.3578 5 17.2668C4.92188 17.1902 4.80957 17.1566 4.74609 17.2189ZM4.21875 16.8309C4.18457 16.8932 4.2334 16.9698 4.33105 17.0177C4.40918 17.0656 4.50684 17.0513 4.54102 16.9842C4.5752 16.9219 4.52637 16.8453 4.42871 16.7974C4.33105 16.7687 4.25293 16.783 4.21875 16.8309ZM5.80078 18.5361C5.72266 18.5984 5.75195 18.742 5.86426 18.8331C5.97656 18.9432 6.11816 18.9576 6.18164 18.881C6.24512 18.8187 6.21582 18.675 6.11816 18.584C6.01074 18.4738 5.86426 18.4595 5.80078 18.5361ZM5.24414 17.832C5.16602 17.8799 5.16602 18.0044 5.24414 18.1146C5.32227 18.2248 5.4541 18.2726 5.51758 18.2248C5.5957 18.1625 5.5957 18.038 5.51758 17.9278C5.44922 17.8176 5.32227 17.7697 5.24414 17.832Z" fill="white"/>
</svg>
