<svg width="22" height="23" viewBox="0 0 22 23" fill="none" xmlns="http://www.w3.org/2000/svg">
<path d="M20.3125 0.698975H1.55762C0.698242 0.698975 0 1.39349 0 2.24607V20.6101C0 21.4626 0.698242 22.1572 1.55762 22.1572H20.3125C21.1719 22.1572 21.875 21.4626 21.875 20.6101V2.24607C21.875 1.39349 21.1719 0.698975 20.3125 0.698975ZM6.61133 19.0917H3.36914V8.85117H6.61621V19.0917H6.61133ZM4.99023 7.45255C3.9502 7.45255 3.11035 6.62392 3.11035 5.60849C3.11035 4.59306 3.9502 3.76443 4.99023 3.76443C6.02539 3.76443 6.87012 4.59306 6.87012 5.60849C6.87012 6.62871 6.03027 7.45255 4.99023 7.45255ZM18.7646 19.0917H15.5225V14.1103C15.5225 12.9225 15.498 11.3945 13.8379 11.3945C12.1484 11.3945 11.8896 12.6878 11.8896 14.0241V19.0917H8.64746V8.85117H11.7578V10.2498H11.8018C12.2363 9.4451 13.2959 8.59731 14.873 8.59731C18.1543 8.59731 18.7646 10.7192 18.7646 13.4781V19.0917Z" fill="white"/>
</svg>
