<svg width="33" height="21" viewBox="0 0 33 21" fill="none" xmlns="http://www.w3.org/2000/svg">
<path d="M17.4804 20.329C26.433 18.4034 32.4902 14.5912 32.4902 10.2262C32.4902 5.86127 26.4288 2.04807 17.4796 0.123547C17.0967 0.0423203 16.6737 -6.14787e-07 16.2447 -6.31462e-07C15.8157 -6.48138e-07 15.3927 0.0423202 15.0098 0.123547C6.05723 2.04914 -2.88116e-07 5.86126 -5.02681e-07 10.2262C-7.17246e-07 14.5912 6.06146 18.4044 15.0107 20.329C15.3935 20.4102 15.8165 20.4525 16.2455 20.4525C16.6746 20.4525 17.0976 20.4102 17.4804 20.329ZM4.06128 10.2262C4.06128 9.21497 4.77585 8.22639 6.11463 7.38554C7.4534 6.54469 9.35626 5.88933 11.5826 5.50233C13.8089 5.11533 16.2586 5.01407 18.6221 5.21136C20.9855 5.40865 23.1565 5.89563 24.8604 6.61072C26.5643 7.3258 27.7247 8.23688 28.1948 9.22873C28.665 10.2206 28.4237 11.2487 27.5015 12.183C26.5793 13.1173 25.0177 13.9158 23.0141 14.4777C21.0105 15.0395 18.6549 15.3394 16.2451 15.3394C14.6449 15.3397 13.0602 15.2077 11.5816 14.9508C10.1031 14.694 8.75963 14.3174 7.6281 13.8425C6.49658 13.3676 5.59915 12.8038 4.98713 12.1833C4.37511 11.5628 4.0605 10.8978 4.06128 10.2262ZM24.3677 10.2262C24.3575 9.92199 24.2497 9.6197 24.047 9.32754C23.2672 9.56837 22.3075 9.68393 21.3421 9.65328C20.3766 9.62263 19.4693 9.44779 18.7847 9.16048C18.1001 8.87317 17.6835 8.4924 17.6104 8.08723C17.5374 7.68207 17.8128 7.27933 18.3866 6.95207C16.7506 6.76571 15.0165 6.79935 13.4284 7.04825C11.8404 7.29715 10.4783 7.74879 9.53389 8.33958C8.58948 8.93037 8.11032 9.63057 8.16385 10.3416C8.21737 11.0527 8.80089 11.7388 9.83226 12.3034C10.8636 12.868 12.2909 13.2827 13.9133 13.489C15.5356 13.6953 17.2713 13.683 18.876 13.4537C20.4807 13.2243 21.8737 12.7896 22.8588 12.2107C23.844 11.6317 24.3717 10.9377 24.3677 10.2262Z" fill="#FF3300"/>
</svg>
