<svg width="22" height="23" viewBox="0 0 22 23" fill="none" xmlns="http://www.w3.org/2000/svg">
<path d="M18.5986 3.79832C16.5527 1.78661 13.8281 0.680176 10.9326 0.680176C4.95605 0.680176 0.0927734 5.45079 0.0927734 11.3135C0.0927734 13.1863 0.59082 15.016 1.53809 16.6301L0 22.1384L5.74707 20.6583C7.3291 21.5061 9.11133 21.9516 10.9277 21.9516H10.9326C16.9043 21.9516 21.875 17.1809 21.875 11.3183C21.875 8.47793 20.6445 5.81002 18.5986 3.79832ZM10.9326 20.1602C9.31152 20.1602 7.72461 19.7339 6.34277 18.9292L6.01562 18.7376L2.60742 19.6141L3.51562 16.3523L3.30078 16.017C2.39746 14.6088 1.92383 12.9851 1.92383 11.3135C1.92383 6.44227 5.9668 2.47634 10.9375 2.47634C13.3447 2.47634 15.6055 3.39598 17.3047 5.06761C19.0039 6.73924 20.0488 8.9569 20.0439 11.3183C20.0439 16.1943 15.8984 20.1602 10.9326 20.1602ZM15.874 13.5407C15.6055 13.4066 14.2725 12.7648 14.0234 12.6786C13.7744 12.5876 13.5938 12.5444 13.4131 12.8127C13.2324 13.0809 12.7148 13.6748 12.5537 13.8568C12.3975 14.0341 12.2363 14.058 11.9678 13.9239C10.376 13.1432 9.33105 12.5301 8.28125 10.7626C8.00293 10.2933 8.55957 10.3268 9.07715 9.31135C9.16504 9.13413 9.12109 8.98085 9.05273 8.84674C8.98438 8.71263 8.44238 7.40502 8.21777 6.87335C7.99805 6.35606 7.77344 6.4279 7.60742 6.41832C7.45117 6.40874 7.27051 6.40874 7.08984 6.40874C6.90918 6.40874 6.61621 6.4758 6.36719 6.73924C6.11816 7.00747 5.41992 7.6493 5.41992 8.9569C5.41992 10.2645 6.3916 11.529 6.52344 11.7062C6.66016 11.8835 8.43262 14.5657 11.1523 15.7201C12.8711 16.4481 13.5449 16.5104 14.4043 16.3858C14.9268 16.3092 16.0059 15.744 16.2305 15.1213C16.4551 14.4987 16.4551 13.967 16.3867 13.8568C16.3232 13.7371 16.1426 13.67 15.874 13.5407Z" fill="white"/>
</svg>
